# xmcd
#
# Track frame offsets:
#	150
#	41505
#	70704
#	114866
#	150012
#	203760
#	249130
#	278005
#
# Disc length: 4253 seconds
# Revision: 0
# Processed by: cddbd v1.5.2PL0 Copyright (c) Steve Scherf et al.
# Submitted via: dBpowerAMP V12.0
#
DISCID=53109b08
DTITLE=Chucho Valdés and The Afro-Cuban Messengers - Border-Free
DYEAR=2013
DGENRE=
TTITLE0=Congadanza
TTITLE1=Caridad Amaro
TTITLE2=Tabú
TTITLE3=Bebo
TTITLE4=Afro-Comanche
TTITLE5=Pilar
TTITLE6=Santa Cruz
TTITLE7=Abdel
EXTD=
EXTT0=
EXTT1=
EXTT2=
EXTT3=
EXTT4=
EXTT5=
EXTT6=
EXTT7=
PLAYORDER=
